PathFileType	4	(X/Y/Z)	C:\Users\Basilio\Documents\Thesis Gigler\squatting_fais\c3dfiles\073\SLS_back_pre1\markers_experimental.trc
DataRate	CameraRate	NumFrames	NumMarkers	Units	OrigDataRate	OrigDataStartFrame	OrigNumFrames
200.000000	200.000000	4	61	mm	200.000000	317	1271
Frame#	Time	FHD			LBHD			RBHD			C7			T10			CLAV			LSHO			LUUPA			LMUPA			LDUPA			LLEP			LMEP			LRAD			LUL			LRFIN			RSHO			RUPA1			RMUPA			RDUPA			RLEP			RMEP			RRAD			RUL			RUFIN			LASI			RASI			USACR			LSACR			RSACR			LTHI1			LTHI2			LTHI3			LTHI4			LLFC			LTIB1			LTIB2			LTIB3			LTIB4			LLMAL			LMMAL			LHEE			LMT1			LMT2			LMT5			RTHI			RTHI2			RTHI3			RTHI4			RLFC			RMFC			RTIB1			RTIB2			RTIB3			RTIB4			RLMAL			RMMAL			RHEE			RMT1			RMT2			RMT5			LMFC			
		X1	Y1	Z1	X2	Y2	Z2	X3	Y3	Z3	X4	Y4	Z4	X5	Y5	Z5	X6	Y6	Z6	X7	Y7	Z7	X8	Y8	Z8	X9	Y9	Z9	X10	Y10	Z10	X11	Y11	Z11	X12	Y12	Z12	X13	Y13	Z13	X14	Y14	Z14	X15	Y15	Z15	X16	Y16	Z16	X17	Y17	Z17	X18	Y18	Z18	X19	Y19	Z19	X20	Y20	Z20	X21	Y21	Z21	X22	Y22	Z22	X23	Y23	Z23	X24	Y24	Z24	X25	Y25	Z25	X26	Y26	Z26	X27	Y27	Z27	X28	Y28	Z28	X29	Y29	Z29	X30	Y30	Z30	X31	Y31	Z31	X32	Y32	Z32	X33	Y33	Z33	X34	Y34	Z34	X35	Y35	Z35	X36	Y36	Z36	X37	Y37	Z37	X38	Y38	Z38	X39	Y39	Z39	X40	Y40	Z40	X41	Y41	Z41	X42	Y42	Z42	X43	Y43	Z43	X44	Y44	Z44	X45	Y45	Z45	X46	Y46	Z46	X47	Y47	Z47	X48	Y48	Z48	X49	Y49	Z49	X50	Y50	Z50	X51	Y51	Z51	X52	Y52	Z52	X53	Y53	Z53	X54	Y54	Z54	X55	Y55	Z55	X56	Y56	Z56	X57	Y57	Z57	X58	Y58	Z58	X59	Y59	Z59	X60	Y60	Z60	X61	Y61	Z61	

318	1.585	-78.69911193847658	1553.591918945313	-746.9602050781251	-214.7798309326172	1534.80810546875	-776.6082153320315	-244.0450744628907	1518.028442382813	-644.2482910156251	-280.1959228515626	1434.965942382813	-709.3705444335939	-432.6916809082032	1136.415893554688	-731.1652832031251	-183.3106689453125	1319.659545898438	-708.2138061523439	-197.0665283203126	1386.82080078125	-844.9810180664065	-118.8601455688477	1316.778442382813	-941.7163085937502	-78.46353149414064	1332.460083007813	-916.2954101562502	-57.58811569213869	1286.607666015625	-950.4903564453127	45.5199203491211	1258.140380859375	-951.9490356445315	38.47316360473634	1201.053955078125	-910.979919433594	303.1986694335938	1271.000610351563	-835.1807861328127	308.5578308105469	1268.457763671875	-909.7571411132815	384.582733154297	1281.002807617188	-826.1013793945315	-194.6345825195313	1368.719116210938	-567.6232910156251	-116.8314437866211	1268.297485351563	-465.9744262695314	-76.31209564208986	1288.671264648438	-482.028533935547	-55.32344818115236	1237.5927734375	-458.8433227539064	36.57735061645509	1217.7958984375	-457.4704589843751	33.63486480712891	1164.84619140625	-521.3169555664064	288.7981872558594	1253.663452148438	-565.6809692382814	299.8884582519532	1255.0634765625	-493.5115661621095	379.4710388183594	1284.667602539063	-568.1394653320314	-320.9693603515626	938.627868652344	-865.074890136719	-329.8182983398438	930.536071777344	-616.9837646484376	-487.5989685058595	1037.800048828125	-735.5986938476564	-504.3031616210939	1013.462890625	-765.0001220703126	-510.7167968750001	1010.479858398438	-708.5476684570314	-333.8221740722657	631.5466308593751	-924.933532714844	-289.7286071777344	560.3046875000001	-907.0520019531252	-251.158920288086	568.6999511718751	-877.9898071289065	-314.4419860839844	505.632293701172	-899.5991821289065	-322.2287292480469	459.852020263672	-899.105163574219	-478.3101806640626	356.0860900878907	-851.528015136719	-529.5595703125001	400.4783020019532	-906.0626220703127	-527.8340454101564	362.1918334960938	-884.9658813476565	-604.2499389648439	345.1693420410157	-852.8125610351565	-732.2941894531251	377.6775512695313	-883.8428955078127	-707.7023315429689	375.0946960449219	-797.9212646484377	-773.1547851562502	432.9313049316407	-843.8616333007815	-744.2723999023439	213.7957458496094	-795.0526123046877	-744.0282592773439	209.3171844482422	-834.4025878906252	-773.1120605468752	237.6365356445313	-887.6519775390627	-349.8913879394532	718.6974487304689	-556.3390502929689	-292.5806884765626	685.6231689453126	-559.3485107421876	-263.4917297363282	701.3106689453126	-564.5949096679689	-282.6116027832032	605.9261474609376	-585.8182373046876	-215.9631652832032	480.875946044922	-611.7018432617189	-213.3827514648438	485.1827697753907	-739.8572387695314	-216.5566558837891	329.0884399414063	-719.6079711914064	-258.0032348632813	250.0848083496094	-659.0789794921876	-238.9548492431641	246.1588134765626	-703.4270629882814	-274.1242370605469	214.3250122070313	-736.9362182617189	-354.9138793945313	98.33267211914065	-689.8314208984376	-348.2549438476563	127.6997451782227	-776.153259277344	-430.4730529785157	81.63366699218751	-745.0499267578126	-206.6399841308594	54.43068695068361	-761.5489501953126	-205.9345703125001	52.34496688842775	-719.9394531250001	-248.3221740722657	35.36432647705079	-671.0117797851564	-334.1167297363282	457.6238708496095	-765.4039916992189	
319	1.59	-78.05590820312501	1551.979736328125	-746.8522338867189	-214.207748413086	1533.452270507813	-776.551940917969	-243.5200653076172	1516.707641601563	-644.2359619140626	-279.6029357910157	1433.718383789063	-709.3698120117189	-432.8063964843751	1135.56982421875	-731.1386108398439	-182.932357788086	1318.279296875	-708.2878417968751	-196.8004608154297	1385.439453125	-844.952331542969	-118.6247482299805	1315.560791015625	-941.7852172851565	-78.06641387939455	1331.036499023438	-916.2227783203127	-57.27022933959962	1285.195190429688	-950.5139770507815	45.98809432983399	1256.734619140625	-951.9460449218752	38.72809219360352	1199.585205078125	-911.0661621093752	303.5415039062501	1269.318603515625	-834.997985839844	308.7436218261719	1266.904174804688	-909.6932373046877	384.4817810058595	1279.375732421875	-825.7044677734377	-194.1601867675782	1367.174194335938	-567.6175537109376	-116.4675598144532	1266.767211914063	-466.0797729492189	-76.00314331054689	1287.218017578125	-481.4854736328126	-55.02252578735353	1235.929809570313	-458.9403381347657	36.88433074951173	1216.115600585938	-457.4438476562501	33.90872955322266	1163.303955078125	-521.3937377929689	288.6767578125001	1252.063598632813	-566.0598144531251	300.2373657226563	1253.422973632813	-493.5012512207032	379.8247985839844	1283.010131835938	-568.2092285156251	-321.7943115234376	937.4880371093752	-865.1934204101565	-330.3788146972657	929.4992675781252	-617.1448974609376	-488.0449523925782	1036.96435546875	-735.5023803710939	-504.9087524414064	1012.643615722656	-764.9550781250001	-511.4655151367189	1009.800598144531	-708.4605102539064	-334.3749084472657	630.7141723632814	-924.9905395507815	-290.2393493652344	559.3831787109376	-907.1955566406252	-251.5838775634766	567.9620971679689	-878.1126098632815	-314.8914794921876	504.7749938964845	-899.682800292969	-322.5174865722657	458.996551513672	-899.207702636719	-478.6802368164064	355.4151611328126	-851.4768066406252	-529.8620605468751	399.7911071777345	-906.2500610351565	-528.6591796875001	361.7177734375001	-885.3313598632815	-604.6394653320314	344.6154174804688	-852.9312133789065	-732.6177368164064	377.2251281738282	-884.2764892578127	-708.1632690429689	374.6980285644532	-798.1458740234377	-773.4158935546877	432.5715942382814	-844.1629638671877	-744.9097900390626	213.4297332763672	-794.9892578125002	-744.4354858398439	209.0272674560547	-834.5415649414065	-773.5972900390627	237.1775970458985	-887.7393798828127	-350.0740356445313	718.0188598632814	-556.3938598632814	-292.6065673828126	685.0537719726564	-559.4771728515626	-263.6072082519532	700.9319458007814	-564.7042846679689	-282.4706420898438	605.3986816406251	-585.9815063476564	-215.4565429687501	480.5787048339845	-612.0750122070314	-212.9516601562501	484.9604797363282	-740.2042236328126	-216.3196411132813	328.9709472656251	-719.9711303710939	-257.6940612792969	249.9651336669922	-659.5698242187501	-238.7901458740235	246.0791473388672	-703.7698364257814	-273.8927917480469	214.0839080810547	-737.2421875000001	-354.8725280761719	98.38913726806643	-689.9598999023439	-348.2969665527344	127.6416778564453	-776.319030761719	-430.4292297363282	81.61660003662111	-745.1336059570314	-206.6965332031251	54.30190277099611	-761.6663208007814	-205.8404083251954	52.48156738281251	-719.8628540039064	-248.3133544921876	35.41305923461915	-671.0344238281251	-334.4304809570313	456.788055419922	-765.4614868164064	
320	1.595	-75.35911560058595	1550.770751953125	-746.9285888671876	-213.5356597900391	1531.951049804688	-776.5271606445315	-242.8457641601563	1515.222778320313	-644.2973632812501	-279.1345825195313	1432.351196289063	-709.3916625976564	-433.0330200195314	1134.570068359375	-731.1123046875001	-182.7074279785157	1316.630615234375	-708.2645263671876	-196.3667602539063	1384.110961914063	-844.8708496093752	-118.1167297363282	1314.054931640625	-941.7283325195315	-77.81355285644533	1329.599243164063	-916.1848754882815	-56.9266815185547	1283.765991210938	-950.4526367187502	46.10703659057618	1255.162475585938	-951.8339843750002	39.06547546386719	1197.958251953125	-911.1313476562502	303.6972961425782	1267.843994140625	-835.0458984375002	309.0804443359376	1265.186767578125	-909.6785278320315	385.1904602050782	1277.810302734375	-825.881530761719	-193.6746063232422	1365.821655273438	-567.7698364257814	-116.0774612426758	1265.279663085938	-466.0845947265626	-75.64796447753908	1285.77490234375	-481.5037841796876	-54.60474395751955	1234.525756835938	-458.9706115722657	37.24650573730469	1214.692749023438	-457.491668701172	34.30744552612305	1161.755981445313	-521.3566894531251	289.5223083496094	1250.43017578125	-565.5579833984376	300.5808715820313	1251.7197265625	-493.5581359863282	380.1521301269532	1281.40283203125	-568.2467041015626	-322.5832824707032	936.3789062500002	-865.2586059570315	-330.9979248046876	928.5676879882815	-617.2667236328126	-488.4996948242189	1036.083984375	-735.5008544921876	-505.1895751953126	1011.781799316406	-764.9473876953126	-511.5974121093751	1009.068176269531	-708.3446044921876	-334.8070068359376	629.8484497070314	-925.1287231445315	-290.6849975585938	558.6942749023439	-907.254577636719	-251.841293334961	567.3126831054689	-878.212341308594	-315.2285766601563	503.9024963378907	-899.8174438476565	-322.9861755371094	458.1738891601564	-899.3641357421877	-478.9561767578126	354.6899108886719	-851.5784301757815	-530.0879516601564	399.102020263672	-906.3822021484377	-528.7483520507814	361.0758666992188	-885.2683715820315	-605.0630493164064	344.0710144042969	-853.1316528320315	-732.7764892578126	376.6704406738282	-884.274108886719	-708.5651245117189	374.2996520996094	-798.4001464843752	-773.7420043945315	432.1828613281251	-844.4589843750002	-745.3638916015626	213.0725250244141	-795.0998535156252	-745.2127075195314	208.5952758789063	-834.7612304687502	-774.0418701171877	236.7191619873047	-887.8912353515627	-350.2034301757813	717.3859863281251	-556.5374145507814	-292.6114807128907	684.5910034179689	-559.6867675781251	-263.6830139160157	700.5512084960939	-564.8468627929689	-282.3036804199219	604.8820190429689	-586.1510009765626	-215.0272827148438	480.333953857422	-612.4035644531251	-212.6392517089844	484.7967834472657	-740.5197143554689	-216.1007537841797	328.8339538574219	-720.3019409179689	-257.5616760253907	249.6092987060547	-659.3517456054689	-238.554183959961	245.8781127929688	-704.3271484375001	-273.8054809570313	214.1416931152344	-737.6018066406251	-354.8501892089844	98.42952728271487	-690.1243896484376	-348.3679809570313	127.5559310913086	-776.5593872070315	-430.4292602539064	81.58876800537111	-745.2015991210939	-206.6930541992188	54.29352188110353	-761.7211303710939	-205.8354034423829	52.55695724487306	-719.9003906250001	-248.3240661621094	35.46721267700196	-671.0902099609376	-334.7989807128907	455.9530334472657	-765.5454711914064	
321	1.6	-77.17371368408205	1548.866577148438	-746.5594482421876	-212.8208312988282	1530.541015625	-776.4906005859377	-242.3412322998047	1513.74609375	-644.3095703125001	-278.5906066894532	1431.056396484375	-709.4088745117189	-433.2423095703126	1133.752685546875	-731.1254882812501	-182.9573516845703	1314.877197265625	-708.5679321289064	-195.9998016357422	1382.694946289063	-844.8168945312502	-117.9801406860352	1312.794189453125	-941.7522583007815	-77.41649627685548	1328.258911132813	-916.1600341796877	-56.95871353149415	1282.353881835938	-950.5203857421877	46.32055664062501	1253.7431640625	-951.938659667969	39.20776367187501	1196.64404296875	-911.0645751953127	304.0489807128907	1266.155151367188	-834.8543090820315	309.5066833496094	1263.695556640625	-909.4978637695315	385.3851928710939	1276.132934570313	-825.9072875976565	-193.1477966308594	1364.346435546875	-567.8491821289064	-115.7435073852539	1263.813842773438	-466.1432495117189	-75.28295898437501	1284.181396484375	-481.6080017089845	-54.30995941162111	1232.894897460938	-459.0615539550782	37.52482986450196	1213.048583984375	-457.4300231933595	34.54290771484376	1160.231201171875	-521.4477539062501	289.5709838867188	1248.5625	-566.5109863281251	300.9922180175782	1250.12109375	-493.6535949707032	380.4805908203126	1279.672729492188	-568.2907104492189	-323.3130187988282	935.3436279296877	-865.3872070312502	-331.5917053222657	927.5691528320315	-617.4388427734376	-489.0911865234376	1035.425903320313	-735.4405517578126	-505.6331787109376	1011.080810546875	-764.8381347656251	-512.0814208984376	1008.181213378906	-708.1895141601564	-335.4340209960938	628.8837890625001	-925.253112792969	-291.1710815429688	558.0355224609376	-907.2483520507815	-252.249008178711	566.5936279296876	-878.2586059570315	-315.4127502441407	503.0596923828126	-899.8741455078127	-323.3088684082032	457.4681091308595	-899.518737792969	-479.4242248535157	354.0409851074219	-851.6417236328127	-530.4600830078126	398.4156494140626	-906.529968261719	-528.6206054687501	360.0089416503907	-884.9652099609377	-605.4782104492189	343.5099487304688	-853.4197387695315	-733.2921752929689	376.2232666015626	-884.5935058593752	-708.9869995117189	373.8742370605469	-798.6252441406252	-774.0845947265627	431.8142700195314	-844.787536621094	-745.9470214843751	212.6746063232422	-795.2153930664065	-745.9589233398439	208.2496032714844	-834.878356933594	-774.467712402344	236.2872619628907	-888.0488281250002	-350.3581848144532	716.7388305664064	-556.7200317382814	-292.6924743652344	684.1550903320314	-559.7446899414064	-263.8168334960938	700.1644897460939	-564.9876098632814	-282.1289978027344	604.3985595703126	-586.3900756835939	-214.5707244873047	480.0930786132814	-612.7185668945314	-212.4347076416016	484.6157531738282	-740.8037109375001	-215.9200286865235	328.6759948730469	-720.7213745117189	-257.0516662597657	249.7900390625001	-660.8433227539064	-238.3728027343751	245.6792602539063	-704.8212890625001	-273.8059082031251	214.0277099609376	-737.9320068359376	-354.7947998046876	98.46197509765628	-690.3473510742189	-348.3343200683594	127.4920349121094	-776.7669677734377	-430.4381103515626	81.56472015380861	-745.2878417968751	-206.6839599609376	54.27187728881837	-761.7631225585939	-205.8021850585938	52.61598205566408	-719.8927001953126	-248.3263397216797	35.54748916625977	-671.1268310546876	-335.1164245605469	455.141326904297	-765.5743408203126	
